<mxfile host="Electron" agent="Mozilla/5.0 (Windows NT 10.0; Win64; x64) AppleWebKit/537.36 (KHTML, like Gecko) draw.io/26.2.15 Chrome/134.0.6998.205 Electron/35.2.1 Safari/537.36" version="26.2.15" pages="2">
  <diagram name="Page-1" id="OkPVL9Q4mvAn5Ctthwtu">
    <mxGraphModel dx="2066" dy="1201" grid="1" gridSize="10" guides="1" tooltips="1" connect="1" arrows="1" fold="1" page="1" pageScale="1" pageWidth="1100" pageHeight="850" math="0" shadow="0">
      <root>
        <mxCell id="0" />
        <mxCell id="1" parent="0" />
        <mxCell id="VoqEz5m4FRcDdfTD2zAC-10" value="" style="group" vertex="1" connectable="0" parent="1">
          <mxGeometry x="890" y="160" width="389.98" height="500" as="geometry" />
        </mxCell>
        <mxCell id="W-l0kizk6zsJXeUwqhXv-8" value="" style="group" vertex="1" connectable="0" parent="VoqEz5m4FRcDdfTD2zAC-10">
          <mxGeometry x="229.98" y="-0.59" width="160.00000000000003" height="500.59" as="geometry" />
        </mxCell>
        <mxCell id="VoqEz5m4FRcDdfTD2zAC-6" value="" style="rounded=0;whiteSpace=wrap;html=1;dashed=1;fillColor=none;" vertex="1" parent="W-l0kizk6zsJXeUwqhXv-8">
          <mxGeometry y="30.00176470588235" width="160.00000000000003" height="470.5882352941176" as="geometry" />
        </mxCell>
        <mxCell id="VoqEz5m4FRcDdfTD2zAC-7" value="&lt;font style=&quot;font-size: 15px;&quot;&gt;&lt;b style=&quot;&quot;&gt;Consume&lt;/b&gt;&lt;/font&gt;" style="rounded=0;whiteSpace=wrap;html=1;fillColor=default;strokeColor=none;" vertex="1" parent="W-l0kizk6zsJXeUwqhXv-8">
          <mxGeometry x="8" width="144.00000000000003" height="44.11764705882352" as="geometry" />
        </mxCell>
        <mxCell id="VoqEz5m4FRcDdfTD2zAC-78" value="" style="image;aspect=fixed;html=1;points=[];align=center;fontSize=12;image=img/lib/azure2/power_platform/PowerBI.svg;" vertex="1" parent="W-l0kizk6zsJXeUwqhXv-8">
          <mxGeometry x="60" y="80" width="30" height="40" as="geometry" />
        </mxCell>
        <mxCell id="W-l0kizk6zsJXeUwqhXv-2" value="BI &amp;amp; Reporting" style="rounded=0;whiteSpace=wrap;html=1;fillColor=none;strokeColor=none;align=center;" vertex="1" parent="W-l0kizk6zsJXeUwqhXv-8">
          <mxGeometry x="30" y="120" width="100" height="30" as="geometry" />
        </mxCell>
        <mxCell id="W-l0kizk6zsJXeUwqhXv-4" value="" style="sketch=0;pointerEvents=1;shadow=0;dashed=0;html=1;strokeColor=#6c8ebf;labelPosition=center;verticalLabelPosition=bottom;verticalAlign=top;align=center;fillColor=#dae8fc;shape=mxgraph.mscae.oms.log_search;direction=east;flipV=0;flipH=1;gradientColor=#7ea6e0;" vertex="1" parent="W-l0kizk6zsJXeUwqhXv-8">
          <mxGeometry x="55" y="180" width="50" height="50" as="geometry" />
        </mxCell>
        <mxCell id="W-l0kizk6zsJXeUwqhXv-5" value="Ad-Hoc&lt;div&gt;SQL Queries&lt;/div&gt;" style="rounded=0;whiteSpace=wrap;html=1;fillColor=none;strokeColor=none;align=center;" vertex="1" parent="W-l0kizk6zsJXeUwqhXv-8">
          <mxGeometry x="30" y="230" width="100" height="30" as="geometry" />
        </mxCell>
        <mxCell id="W-l0kizk6zsJXeUwqhXv-6" value="" style="sketch=0;outlineConnect=0;fontColor=#232F3E;gradientColor=none;fillColor=#7AA116;strokeColor=none;dashed=0;verticalLabelPosition=bottom;verticalAlign=top;align=center;html=1;fontSize=12;fontStyle=0;aspect=fixed;pointerEvents=1;shape=mxgraph.aws4.iot_greengrass_component_machine_learning;" vertex="1" parent="W-l0kizk6zsJXeUwqhXv-8">
          <mxGeometry x="50" y="290" width="78" height="78" as="geometry" />
        </mxCell>
        <mxCell id="W-l0kizk6zsJXeUwqhXv-7" value="Machine Learning" style="rounded=0;whiteSpace=wrap;html=1;fillColor=none;strokeColor=none;align=center;" vertex="1" parent="W-l0kizk6zsJXeUwqhXv-8">
          <mxGeometry x="39" y="380" width="100" height="30" as="geometry" />
        </mxCell>
        <mxCell id="VoqEz5m4FRcDdfTD2zAC-67" value="" style="group" vertex="1" connectable="0" parent="VoqEz5m4FRcDdfTD2zAC-10">
          <mxGeometry x="-570" y="-0.5900000000000034" width="159.98000000000002" height="500" as="geometry" />
        </mxCell>
        <mxCell id="VoqEz5m4FRcDdfTD2zAC-32" value="" style="group" vertex="1" connectable="0" parent="VoqEz5m4FRcDdfTD2zAC-67">
          <mxGeometry width="159.98" height="500" as="geometry" />
        </mxCell>
        <mxCell id="VoqEz5m4FRcDdfTD2zAC-33" value="" style="group" vertex="1" connectable="0" parent="VoqEz5m4FRcDdfTD2zAC-32">
          <mxGeometry width="159.98" height="500" as="geometry" />
        </mxCell>
        <mxCell id="VoqEz5m4FRcDdfTD2zAC-1" value="" style="rounded=0;whiteSpace=wrap;html=1;dashed=1;fillColor=none;" vertex="1" parent="VoqEz5m4FRcDdfTD2zAC-33">
          <mxGeometry y="30" width="152.36317444444444" height="470" as="geometry" />
        </mxCell>
        <mxCell id="VoqEz5m4FRcDdfTD2zAC-3" value="&lt;font style=&quot;font-size: 15px;&quot;&gt;&lt;b style=&quot;&quot;&gt;Sources&lt;/b&gt;&lt;/font&gt;" style="rounded=0;whiteSpace=wrap;html=1;fillColor=default;strokeColor=none;" vertex="1" parent="VoqEz5m4FRcDdfTD2zAC-33">
          <mxGeometry x="16.510279561157798" y="10" width="114.27142857142854" height="36.923076923076906" as="geometry" />
        </mxCell>
        <mxCell id="VoqEz5m4FRcDdfTD2zAC-35" value="&lt;font style=&quot;font-size: 11px;&quot;&gt;&lt;b&gt;Object Type:&lt;/b&gt; CSV Files&lt;/font&gt;&lt;div&gt;&lt;font style=&quot;font-size: 11px;&quot;&gt;&lt;b&gt;Interface:&lt;/b&gt; Files in Folder&lt;/font&gt;&lt;/div&gt;" style="rounded=0;whiteSpace=wrap;html=1;align=left;strokeColor=none;fillColor=none;" vertex="1" parent="VoqEz5m4FRcDdfTD2zAC-33">
          <mxGeometry x="7.618095238095237" y="332.3076923076922" width="132.04698412698409" height="98.46153846153842" as="geometry" />
        </mxCell>
        <mxCell id="VoqEz5m4FRcDdfTD2zAC-42" value="" style="endArrow=none;html=1;rounded=0;entryX=0.951;entryY=-0.014;entryDx=0;entryDy=0;entryPerimeter=0;" edge="1" parent="VoqEz5m4FRcDdfTD2zAC-33" target="VoqEz5m4FRcDdfTD2zAC-35">
          <mxGeometry width="50" height="50" relative="1" as="geometry">
            <mxPoint x="9.99875" y="332.3076923076922" as="sourcePoint" />
            <mxPoint x="89.98874999999998" y="332.3076923076922" as="targetPoint" />
          </mxGeometry>
        </mxCell>
        <mxCell id="VoqEz5m4FRcDdfTD2zAC-66" value="" style="group" vertex="1" connectable="0" parent="VoqEz5m4FRcDdfTD2zAC-67">
          <mxGeometry x="22.83714285714285" y="98.46153846153845" width="88.48571428571431" height="196.92307692307685" as="geometry" />
        </mxCell>
        <mxCell id="VoqEz5m4FRcDdfTD2zAC-27" value="" style="group" vertex="1" connectable="0" parent="VoqEz5m4FRcDdfTD2zAC-66">
          <mxGeometry width="82.77142857142857" height="73.84615384615381" as="geometry" />
        </mxCell>
        <mxCell id="VoqEz5m4FRcDdfTD2zAC-19" value="" style="image;aspect=fixed;html=1;points=[];align=center;fontSize=12;image=img/lib/azure2/general/Folder_Blank.svg;" vertex="1" parent="VoqEz5m4FRcDdfTD2zAC-27">
          <mxGeometry width="49.56633981693362" height="40.22425629290616" as="geometry" />
        </mxCell>
        <mxCell id="VoqEz5m4FRcDdfTD2zAC-21" value="" style="image;aspect=fixed;html=1;points=[];align=center;fontSize=12;image=img/lib/azure2/general/File.svg;" vertex="1" parent="VoqEz5m4FRcDdfTD2zAC-27">
          <mxGeometry x="48.571428571428555" y="24.6153846153846" width="24.074217391304344" height="29.6653890160183" as="geometry" />
        </mxCell>
        <mxCell id="VoqEz5m4FRcDdfTD2zAC-24" value="CRM" style="rounded=0;whiteSpace=wrap;html=1;fillColor=none;strokeColor=none;" vertex="1" parent="VoqEz5m4FRcDdfTD2zAC-27">
          <mxGeometry x="5.714285714285713" y="49.2307692307692" width="42.857142857142854" height="24.6153846153846" as="geometry" />
        </mxCell>
        <mxCell id="VoqEz5m4FRcDdfTD2zAC-28" value="" style="group" vertex="1" connectable="0" parent="VoqEz5m4FRcDdfTD2zAC-66">
          <mxGeometry x="5.714285714285737" y="123.07692307692304" width="82.77142857142857" height="73.84615384615381" as="geometry" />
        </mxCell>
        <mxCell id="VoqEz5m4FRcDdfTD2zAC-29" value="" style="image;aspect=fixed;html=1;points=[];align=center;fontSize=12;image=img/lib/azure2/general/Folder_Blank.svg;" vertex="1" parent="VoqEz5m4FRcDdfTD2zAC-28">
          <mxGeometry width="49.56633981693362" height="40.22425629290616" as="geometry" />
        </mxCell>
        <mxCell id="VoqEz5m4FRcDdfTD2zAC-30" value="" style="image;aspect=fixed;html=1;points=[];align=center;fontSize=12;image=img/lib/azure2/general/File.svg;" vertex="1" parent="VoqEz5m4FRcDdfTD2zAC-28">
          <mxGeometry x="48.571428571428555" y="24.6153846153846" width="24.074217391304344" height="29.6653890160183" as="geometry" />
        </mxCell>
        <mxCell id="VoqEz5m4FRcDdfTD2zAC-31" value="ERP" style="rounded=0;whiteSpace=wrap;html=1;fillColor=none;strokeColor=none;" vertex="1" parent="VoqEz5m4FRcDdfTD2zAC-28">
          <mxGeometry x="5.714285714285713" y="49.2307692307692" width="42.857142857142854" height="24.6153846153846" as="geometry" />
        </mxCell>
        <mxCell id="VoqEz5m4FRcDdfTD2zAC-72" value="" style="html=1;shadow=0;dashed=0;align=center;verticalAlign=middle;shape=mxgraph.arrows2.arrow;dy=0.59;dx=19.83;notch=0;fillColor=#dae8fc;gradientColor=#7ea6e0;strokeColor=#6c8ebf;" vertex="1" parent="VoqEz5m4FRcDdfTD2zAC-10">
          <mxGeometry x="-420.02" y="236.91000000000003" width="40" height="25" as="geometry" />
        </mxCell>
        <mxCell id="VoqEz5m4FRcDdfTD2zAC-75" value="" style="html=1;shadow=0;dashed=0;align=center;verticalAlign=middle;shape=mxgraph.arrows2.arrow;dy=0.59;dx=19.83;notch=0;fillColor=#dae8fc;gradientColor=#7ea6e0;strokeColor=#6c8ebf;" vertex="1" parent="VoqEz5m4FRcDdfTD2zAC-10">
          <mxGeometry x="191.4000000000001" y="236.91000000000003" width="40" height="25" as="geometry" />
        </mxCell>
        <mxCell id="VoqEz5m4FRcDdfTD2zAC-76" value="" style="group" vertex="1" connectable="0" parent="VoqEz5m4FRcDdfTD2zAC-10">
          <mxGeometry x="-380.02" y="9.409999999999997" width="569.9999999999999" height="490" as="geometry" />
        </mxCell>
        <mxCell id="VoqEz5m4FRcDdfTD2zAC-14" value="" style="rounded=0;whiteSpace=wrap;html=1;fillColor=none;strokeColor=#C89000;" vertex="1" parent="VoqEz5m4FRcDdfTD2zAC-76">
          <mxGeometry x="12.649999999999972" y="65" width="155.92999999999995" height="405" as="geometry" />
        </mxCell>
        <mxCell id="VoqEz5m4FRcDdfTD2zAC-13" value="&lt;b&gt;&lt;font style=&quot;font-size: 14px;&quot;&gt;Bronze Layer&lt;/font&gt;&lt;/b&gt;" style="rounded=0;whiteSpace=wrap;html=1;fillColor=#ffe6cc;strokeColor=#C89000;" vertex="1" parent="VoqEz5m4FRcDdfTD2zAC-76">
          <mxGeometry x="12.649999999999972" y="40" width="155.92999999999995" height="20" as="geometry" />
        </mxCell>
        <mxCell id="VoqEz5m4FRcDdfTD2zAC-15" value="" style="rounded=0;whiteSpace=wrap;html=1;fillColor=none;strokeColor=#666666;gradientColor=#b3b3b3;" vertex="1" parent="VoqEz5m4FRcDdfTD2zAC-76">
          <mxGeometry x="203.86999999999995" y="65" width="154.70999999999998" height="405" as="geometry" />
        </mxCell>
        <mxCell id="VoqEz5m4FRcDdfTD2zAC-16" value="&lt;b&gt;&lt;font style=&quot;font-size: 14px;&quot;&gt;Silver Layer&lt;/font&gt;&lt;/b&gt;" style="rounded=0;whiteSpace=wrap;html=1;fillColor=#f5f5f5;strokeColor=#666666;gradientColor=#b3b3b3;" vertex="1" parent="VoqEz5m4FRcDdfTD2zAC-76">
          <mxGeometry x="203.86999999999995" y="40" width="154.70999999999998" height="20" as="geometry" />
        </mxCell>
        <mxCell id="VoqEz5m4FRcDdfTD2zAC-5" value="" style="rounded=0;whiteSpace=wrap;html=1;dashed=1;fillColor=none;strokeColor=light-dark(#1A1A1A,#323200);" vertex="1" parent="VoqEz5m4FRcDdfTD2zAC-76">
          <mxGeometry y="20" width="569.9999999999999" height="470" as="geometry" />
        </mxCell>
        <mxCell id="VoqEz5m4FRcDdfTD2zAC-18" value="&lt;b&gt;&lt;font style=&quot;font-size: 14px;&quot;&gt;Gold Layer&lt;/font&gt;&lt;/b&gt;" style="rounded=0;whiteSpace=wrap;html=1;fillColor=#fff2cc;strokeColor=#d6b656;gradientColor=#ffd966;" vertex="1" parent="VoqEz5m4FRcDdfTD2zAC-76">
          <mxGeometry x="398.5799999999999" y="40" width="159.99999999999994" height="20" as="geometry" />
        </mxCell>
        <mxCell id="VoqEz5m4FRcDdfTD2zAC-8" value="&lt;font style=&quot;font-size: 15px;&quot;&gt;&lt;b style=&quot;&quot;&gt;Datawarehouse&lt;/b&gt;&lt;/font&gt;" style="rounded=0;whiteSpace=wrap;html=1;fillColor=default;strokeColor=none;" vertex="1" parent="VoqEz5m4FRcDdfTD2zAC-76">
          <mxGeometry x="198.57999999999993" width="136.74" height="35.85" as="geometry" />
        </mxCell>
        <mxCell id="VoqEz5m4FRcDdfTD2zAC-43" value="" style="html=1;verticalLabelPosition=bottom;align=center;labelBackgroundColor=#ffffff;verticalAlign=top;strokeWidth=2;strokeColor=#AC9245;shadow=0;dashed=0;shape=mxgraph.ios7.icons.data;fillColor=#C89000;gradientColor=#ffd966;" vertex="1" parent="VoqEz5m4FRcDdfTD2zAC-76">
          <mxGeometry x="63.84415094339616" y="73.65853658536585" width="41.50943396226414" height="71.70731707317073" as="geometry" />
        </mxCell>
        <mxCell id="VoqEz5m4FRcDdfTD2zAC-55" value="" style="html=1;verticalLabelPosition=bottom;align=center;labelBackgroundColor=#ffffff;verticalAlign=top;strokeWidth=2;strokeColor=#666666;shadow=0;dashed=0;shape=mxgraph.ios7.icons.data;fillColor=#f5f5f5;gradientColor=#b3b3b3;" vertex="1" parent="VoqEz5m4FRcDdfTD2zAC-76">
          <mxGeometry x="264.2471698113205" y="73.65853658536585" width="41.50943396226414" height="71.70731707317073" as="geometry" />
        </mxCell>
        <mxCell id="VoqEz5m4FRcDdfTD2zAC-56" value="" style="html=1;verticalLabelPosition=bottom;align=center;labelBackgroundColor=#ffffff;verticalAlign=top;strokeWidth=2;strokeColor=#d6b656;shadow=0;dashed=0;shape=mxgraph.ios7.icons.data;fillColor=#fff2cc;gradientColor=#ffd966;" vertex="1" parent="VoqEz5m4FRcDdfTD2zAC-76">
          <mxGeometry x="462.31018867924513" y="73.65853658536585" width="41.50943396226414" height="71.70731707317073" as="geometry" />
        </mxCell>
        <mxCell id="VoqEz5m4FRcDdfTD2zAC-57" value="Raw Data" style="rounded=0;whiteSpace=wrap;html=1;fillColor=none;strokeColor=none;" vertex="1" parent="VoqEz5m4FRcDdfTD2zAC-76">
          <mxGeometry x="41.0139622641509" y="145.3658536585366" width="87.16981132075468" height="35.853658536585364" as="geometry" />
        </mxCell>
        <mxCell id="VoqEz5m4FRcDdfTD2zAC-59" value="&lt;font&gt;&lt;b&gt;Object Type: &lt;/b&gt;Table&lt;/font&gt;&lt;div&gt;&lt;font&gt;&lt;b&gt;&lt;br&gt;&lt;/b&gt;&lt;/font&gt;&lt;/div&gt;&lt;div&gt;&lt;font&gt;&lt;b&gt;Load:&amp;nbsp;&lt;/b&gt;&lt;/font&gt;&lt;/div&gt;&lt;div style=&quot;line-height: 20.4px;&quot;&gt;&lt;ul&gt;&lt;li&gt;&lt;font&gt;Batch Processing&lt;/font&gt;&lt;/li&gt;&lt;li&gt;&lt;font&gt;Full Load&amp;nbsp;&lt;/font&gt;&lt;/li&gt;&lt;li&gt;&lt;span&gt;Truncate &amp;amp; Insert&lt;/span&gt;&lt;/li&gt;&lt;/ul&gt;&lt;div&gt;&lt;span style=&quot;line-height: 17px;&quot;&gt;No &lt;b&gt;Transformations:&lt;/b&gt;&lt;/span&gt;&lt;/div&gt;&lt;div&gt;&lt;div&gt;&lt;b&gt;Data Model: &lt;/b&gt;Non (as - is)&lt;/div&gt;&lt;/div&gt;&lt;/div&gt;" style="rounded=0;whiteSpace=wrap;html=1;fillColor=none;strokeColor=none;spacing=0;align=left;fontSize=10;" vertex="1" parent="VoqEz5m4FRcDdfTD2zAC-76">
          <mxGeometry x="28.57999999999998" y="170" width="139.99999999999994" height="180" as="geometry" />
        </mxCell>
        <mxCell id="VoqEz5m4FRcDdfTD2zAC-62" value="&lt;font&gt;&lt;b&gt;Object Type: &lt;/b&gt;Table&lt;/font&gt;&lt;div&gt;&lt;font&gt;&lt;b&gt;&lt;br&gt;&lt;/b&gt;&lt;/font&gt;&lt;/div&gt;&lt;div&gt;&lt;font&gt;&lt;b&gt;Load:&amp;nbsp;&lt;/b&gt;&lt;/font&gt;&lt;/div&gt;&lt;div style=&quot;line-height: 20.4px;&quot;&gt;&lt;ul&gt;&lt;li&gt;&lt;font&gt;Batch Processing&lt;/font&gt;&lt;/li&gt;&lt;li&gt;&lt;font&gt;Full Load&amp;nbsp;&lt;/font&gt;&lt;/li&gt;&lt;li&gt;&lt;span&gt;Truncate &amp;amp; Insert&lt;/span&gt;&lt;/li&gt;&lt;/ul&gt;&lt;div&gt;&lt;span style=&quot;line-height: 17px;&quot;&gt;&lt;b&gt;Transformations:&lt;/b&gt;&lt;/span&gt;&lt;/div&gt;&lt;div&gt;&lt;ul&gt;&lt;li&gt;&lt;span style=&quot;background-color: transparent; color: light-dark(rgb(0, 0, 0), rgb(255, 255, 255));&quot;&gt;&lt;font style=&quot;line-height: 17px;&quot;&gt;Data Cleaning&lt;/font&gt;&lt;/span&gt;&lt;/li&gt;&lt;li&gt;&lt;span style=&quot;background-color: transparent; color: light-dark(rgb(0, 0, 0), rgb(255, 255, 255));&quot;&gt;&lt;font style=&quot;line-height: 17px;&quot;&gt;Data Standardization&lt;/font&gt;&lt;/span&gt;&lt;/li&gt;&lt;li&gt;&lt;span style=&quot;background-color: transparent; color: light-dark(rgb(0, 0, 0), rgb(255, 255, 255));&quot;&gt;&lt;font style=&quot;line-height: 17px;&quot;&gt;Data Normalization&lt;/font&gt;&lt;/span&gt;&lt;/li&gt;&lt;li&gt;&lt;span style=&quot;background-color: transparent; color: light-dark(rgb(0, 0, 0), rgb(255, 255, 255));&quot;&gt;&lt;font style=&quot;line-height: 17px;&quot;&gt;Derived Columns&lt;/font&gt;&lt;/span&gt;&lt;/li&gt;&lt;li&gt;&lt;span style=&quot;background-color: transparent; color: light-dark(rgb(0, 0, 0), rgb(255, 255, 255));&quot;&gt;&lt;font style=&quot;line-height: 17px;&quot;&gt;Data Enrichment&lt;/font&gt;&lt;/span&gt;&lt;/li&gt;&lt;/ul&gt;&lt;div&gt;&lt;b&gt;Data Model: &lt;/b&gt;Non (as - is)&lt;/div&gt;&lt;/div&gt;&lt;/div&gt;" style="rounded=0;whiteSpace=wrap;html=1;fillColor=none;strokeColor=none;spacing=0;align=left;fontSize=10;" vertex="1" parent="VoqEz5m4FRcDdfTD2zAC-76">
          <mxGeometry x="208.57999999999993" y="170" width="139.99999999999994" height="300" as="geometry" />
        </mxCell>
        <mxCell id="VoqEz5m4FRcDdfTD2zAC-63" value="&lt;p style=&quot;margin-bottom: 0cm; line-height: normal;&quot; align=&quot;center&quot; class=&quot;MsoNormal&quot;&gt;&lt;span&gt;Clean &amp;amp; standardize data&lt;/span&gt;&lt;/p&gt;" style="rounded=0;whiteSpace=wrap;html=1;fillColor=none;strokeColor=none;fontSize=12;fontStyle=0;spacing=0;" vertex="1" parent="VoqEz5m4FRcDdfTD2zAC-76">
          <mxGeometry x="211.21999999999989" y="134.14999999999998" width="139.99999999999994" height="35.85" as="geometry" />
        </mxCell>
        <mxCell id="VoqEz5m4FRcDdfTD2zAC-73" value="" style="html=1;shadow=0;dashed=0;align=center;verticalAlign=middle;shape=mxgraph.arrows2.arrow;dy=0.59;dx=19.83;notch=0;fillColor=#dae8fc;gradientColor=#7ea6e0;strokeColor=#6c8ebf;" vertex="1" parent="VoqEz5m4FRcDdfTD2zAC-76">
          <mxGeometry x="168.57999999999993" y="227.5" width="39.999999999999986" height="25" as="geometry" />
        </mxCell>
        <mxCell id="VoqEz5m4FRcDdfTD2zAC-74" value="" style="html=1;shadow=0;dashed=0;align=center;verticalAlign=middle;shape=mxgraph.arrows2.arrow;dy=0.59;dx=19.83;notch=0;fillColor=#dae8fc;gradientColor=#7ea6e0;strokeColor=#6c8ebf;" vertex="1" parent="VoqEz5m4FRcDdfTD2zAC-76">
          <mxGeometry x="358.5799999999998" y="227.5" width="39.999999999999986" height="25" as="geometry" />
        </mxCell>
        <mxCell id="VoqEz5m4FRcDdfTD2zAC-17" value="" style="rounded=0;whiteSpace=wrap;html=1;fillColor=none;strokeColor=#d6b656;gradientColor=#ffd966;" vertex="1" parent="VoqEz5m4FRcDdfTD2zAC-76">
          <mxGeometry x="398.58" y="65" width="159.99999999999994" height="405" as="geometry" />
        </mxCell>
        <mxCell id="VoqEz5m4FRcDdfTD2zAC-65" value="&lt;p style=&quot;margin-bottom: 0cm; line-height: normal;&quot; align=&quot;center&quot; class=&quot;MsoNormal&quot;&gt;Business-Ready data&lt;b&gt;&lt;/b&gt;&lt;/p&gt;" style="rounded=0;whiteSpace=wrap;html=1;fillColor=none;strokeColor=none;fontSize=12;fontStyle=0;spacing=0;" vertex="1" parent="VoqEz5m4FRcDdfTD2zAC-76">
          <mxGeometry x="408.5799999999999" y="134.14999999999998" width="139.99999999999994" height="35.85" as="geometry" />
        </mxCell>
        <mxCell id="VoqEz5m4FRcDdfTD2zAC-64" value="&lt;font&gt;&lt;b&gt;Object Type: &lt;/b&gt;Table&lt;/font&gt;&lt;div&gt;&lt;font&gt;&lt;b&gt;&lt;br&gt;&lt;/b&gt;&lt;/font&gt;&lt;/div&gt;&lt;div&gt;&lt;font&gt;No&amp;nbsp;&lt;b&gt;Load&lt;/b&gt;&lt;/font&gt;&lt;/div&gt;&lt;div&gt;&lt;font&gt;&lt;b&gt;&lt;br&gt;&lt;/b&gt;&lt;/font&gt;&lt;/div&gt;&lt;div style=&quot;line-height: 20.4px;&quot;&gt;&lt;div&gt;&lt;span style=&quot;line-height: 17px;&quot;&gt;&lt;b&gt;Transformations:&lt;/b&gt;&lt;/span&gt;&lt;/div&gt;&lt;div&gt;&lt;ul&gt;&lt;li&gt;&lt;span style=&quot;background-color: transparent; color: light-dark(rgb(0, 0, 0), rgb(255, 255, 255));&quot;&gt;Data Integration&lt;/span&gt;&lt;/li&gt;&lt;li&gt;&lt;span style=&quot;background-color: transparent; color: light-dark(rgb(0, 0, 0), rgb(255, 255, 255));&quot;&gt;Business Logic &amp;amp; Rules&lt;/span&gt;&lt;/li&gt;&lt;li&gt;&lt;span style=&quot;background-color: transparent; color: light-dark(rgb(0, 0, 0), rgb(255, 255, 255));&quot;&gt;Data Aggregation&lt;/span&gt;&lt;/li&gt;&lt;/ul&gt;&lt;/div&gt;&lt;div&gt;&lt;div&gt;&lt;b&gt;Data Model:&lt;/b&gt;&lt;/div&gt;&lt;div&gt;&lt;ul&gt;&lt;li&gt;&lt;span style=&quot;background-color: transparent; color: light-dark(rgb(0, 0, 0), rgb(255, 255, 255));&quot;&gt;Star Schema&lt;/span&gt;&lt;/li&gt;&lt;li&gt;&lt;span style=&quot;background-color: transparent; color: light-dark(rgb(0, 0, 0), rgb(255, 255, 255));&quot;&gt;Aggregated Objects&lt;/span&gt;&lt;/li&gt;&lt;li&gt;&lt;span style=&quot;background-color: transparent; color: light-dark(rgb(0, 0, 0), rgb(255, 255, 255));&quot;&gt;Flat Tables&lt;/span&gt;&lt;/li&gt;&lt;/ul&gt;&lt;/div&gt;&lt;/div&gt;&lt;/div&gt;" style="rounded=0;whiteSpace=wrap;html=1;fillColor=none;strokeColor=none;spacing=0;align=left;fontSize=10;" vertex="1" parent="VoqEz5m4FRcDdfTD2zAC-76">
          <mxGeometry x="403.5799999999999" y="150" width="149.99999999999994" height="300" as="geometry" />
        </mxCell>
      </root>
    </mxGraphModel>
  </diagram>
  <diagram id="BrXb2XBQzV2ipnt3IQHI" name="Page-2">
    <mxGraphModel grid="1" page="1" gridSize="10" guides="1" tooltips="1" connect="1" arrows="1" fold="1" pageScale="1" pageWidth="1100" pageHeight="850" math="0" shadow="0">
      <root>
        <mxCell id="0" />
        <mxCell id="1" parent="0" />
      </root>
    </mxGraphModel>
  </diagram>
</mxfile>
